<svg width="10" height="10" viewBox="0 0 10 10" fill="none" xmlns="http://www.w3.org/2000/svg">
<g clip-path="url(#clip0_1_66)">
<path d="M5.99041 0.325278L6.57104 0.750278C6.66666 0.820278 6.77791 0.866528 6.89479 0.884653L7.60604 0.994028C7.95796 1.04813 8.28347 1.21305 8.53524 1.46482C8.78701 1.7166 8.95194 2.0421 9.00604 2.39403L9.11479 3.1059C9.13291 3.22278 9.17916 3.33403 9.24916 3.42965L9.67416 4.00965C9.88516 4.29684 9.99895 4.64391 9.99895 5.00028C9.99895 5.35665 9.88516 5.70371 9.67416 5.9909L9.24916 6.5709C9.17887 6.66638 9.13277 6.77746 9.11479 6.89465L9.00541 7.6059C8.9514 7.95803 8.78644 8.28374 8.53453 8.53565C8.28263 8.78755 7.95692 8.95251 7.60479 9.00653L6.89354 9.1159C6.77632 9.13378 6.66521 9.1799 6.56979 9.25028L5.98979 9.67528C5.7026 9.88628 5.35554 10.0001 4.99916 10.0001C4.64279 10.0001 4.29573 9.88628 4.00854 9.67528L3.42854 9.25028C3.33306 9.17999 3.22198 9.13388 3.10479 9.1159L2.39354 9.00653C2.04161 8.95243 1.71611 8.78751 1.46434 8.53573C1.21256 8.28396 1.04764 7.95846 0.993539 7.60653L0.884164 6.89528C0.866283 6.77806 0.820166 6.66695 0.749789 6.57153L0.324789 5.99153C0.113789 5.70434 0 5.35727 0 5.0009C0 4.64453 0.113789 4.29747 0.324789 4.01028L0.749789 3.43028C0.819789 3.33465 0.866039 3.2234 0.884164 3.10653L0.993539 2.39403C1.04764 2.0421 1.21256 1.7166 1.46434 1.46482C1.71611 1.21305 2.04161 1.04813 2.39354 0.994028L3.10541 0.884653C3.22229 0.866528 3.33354 0.820278 3.42916 0.750278L4.00916 0.325278C4.29636 0.114277 4.64342 0.000488281 4.99979 0.000488281C5.35616 0.000488281 5.70322 0.114277 5.99041 0.325278ZM4.56416 1.08028L3.98479 1.50528C3.7673 1.66532 3.51423 1.7702 3.24729 1.8109L2.53666 1.91965C2.38156 1.9434 2.23808 2.01604 2.12713 2.12699C2.01617 2.23795 1.94354 2.38142 1.91979 2.53653L1.81104 3.24653C1.77016 3.51342 1.6653 3.76646 1.50541 3.98403L1.08041 4.56403C0.987886 4.69043 0.938008 4.84301 0.938008 4.99965C0.938008 5.1563 0.987886 5.30888 1.08041 5.43528L1.50541 6.01465C1.66541 6.23215 1.77041 6.48528 1.81104 6.75215L1.91979 7.46278C1.96854 7.7809 2.21854 8.0309 2.53666 8.07965L3.24666 8.1884C3.5136 8.22911 3.76668 8.33399 3.98416 8.49403L4.56416 8.91903C4.82291 9.10965 5.17604 9.10965 5.43541 8.91903L6.01479 8.49403C6.23227 8.33399 6.48535 8.22911 6.75229 8.1884L7.46291 8.07965C7.61798 8.05581 7.76141 7.98315 7.87234 7.87221C7.98328 7.76127 8.05595 7.61785 8.07979 7.46278L8.18854 6.75278C8.22924 6.48584 8.33412 6.23276 8.49416 6.01528L8.91916 5.43528C9.01206 5.30903 9.06217 5.1564 9.06217 4.99965C9.06217 4.84291 9.01206 4.69027 8.91916 4.56403L8.49416 3.98465C8.33447 3.76697 8.22963 3.51399 8.18854 3.24715L8.07979 2.53653C8.05604 2.38142 7.9834 2.23795 7.87245 2.12699C7.76149 2.01604 7.61802 1.9434 7.46291 1.91965L6.75291 1.8109C6.48602 1.77003 6.23299 1.66517 6.01541 1.50528L5.43541 1.08028C5.30917 0.987379 5.15653 0.937271 4.99979 0.937271C4.84305 0.937271 4.69041 0.987379 4.56416 1.08028ZM7.04979 4.23778L4.70604 6.58153C4.61815 6.66931 4.49901 6.71862 4.37479 6.71862C4.25057 6.71862 4.13143 6.66931 4.04354 6.58153L2.94979 5.48778C2.86703 5.39886 2.82197 5.28133 2.82407 5.15988C2.82616 5.03844 2.87526 4.92253 2.96104 4.83653C3.04704 4.75075 3.16295 4.70165 3.28439 4.69956C3.40584 4.69746 3.52338 4.74252 3.61229 4.82528L4.37479 5.58778L6.38729 3.57528C6.4762 3.49252 6.59373 3.44746 6.71518 3.44956C6.83663 3.45165 6.95254 3.50075 7.03854 3.58653C7.12432 3.67253 7.17341 3.78844 7.17551 3.90988C7.17761 4.03133 7.13254 4.14886 7.04979 4.23778Z" fill="#111111" fill-opacity="0.4"/>
</g>
<defs>
<clipPath id="clip0_1_66">
<rect width="10" height="10" fill="white"/>
</clipPath>
</defs>
</svg>
