<svg width="12" height="13" viewBox="0 0 12 13" fill="none" xmlns="http://www.w3.org/2000/svg">
<path d="M4.29184 2.54481C5.05202 1.1816 5.43181 0.5 6 0.5C6.56819 0.5 6.94798 1.1816 7.70816 2.54481L7.90495 2.89761C8.12095 3.28521 8.22895 3.47901 8.39694 3.60681C8.56494 3.73461 8.77493 3.78201 9.19492 3.87681L9.57652 3.96321C11.0525 4.29741 11.7899 4.46421 11.9657 5.02881C12.1409 5.59282 11.6381 6.18142 10.6319 7.35802L10.3715 7.66222C10.0859 7.99642 9.94251 8.16382 9.87831 8.37022C9.81411 8.57722 9.83571 8.80042 9.87891 9.24623L9.91851 9.65243C10.0703 11.2226 10.1465 12.0074 9.68691 12.356C9.22732 12.7052 8.53614 12.3866 7.15497 11.7506L6.79678 11.5862C6.40439 11.405 6.20819 11.315 6 11.315C5.7918 11.315 5.59561 11.405 5.20322 11.5862L4.84563 11.7506C3.46386 12.3866 2.77268 12.7046 2.31369 12.3566C1.8535 12.0074 1.9297 11.2226 2.08149 9.65243L2.12109 9.24683C2.16429 8.80042 2.18589 8.57722 2.12109 8.37082C2.05749 8.16382 1.9141 7.99642 1.6285 7.66282L1.36811 7.35802C0.361933 6.18202 -0.140856 5.59342 0.0343402 5.02881C0.210136 4.46421 0.948119 4.29681 2.42408 3.96321L2.80567 3.87681C3.22506 3.78201 3.43446 3.73461 3.60306 3.60681C3.77105 3.47901 3.87905 3.28521 4.09504 2.89761L4.29184 2.54481Z" fill="#FFD700"/>
</svg>
