<svg width="16" height="16" viewBox="0 0 16 16" fill="none" xmlns="http://www.w3.org/2000/svg">
<path d="M7.21312 8.54707L6.12646 7.43339C5.98907 7.29011 5.81746 7.21847 5.61162 7.21847C5.40578 7.21847 5.22767 7.29663 5.07728 7.45293C4.93989 7.59621 4.87119 7.77857 4.87119 8C4.87119 8.22143 4.93989 8.40379 5.07728 8.54707L6.68853 10.2274C6.83841 10.3837 7.01327 10.4618 7.21312 10.4618C7.41296 10.4618 7.58782 10.3837 7.73771 10.2274L10.9227 6.90586C11.0726 6.74956 11.1443 6.5672 11.1378 6.35879C11.1313 6.15039 11.0596 5.96803 10.9227 5.81172C10.7728 5.65542 10.595 5.57414 10.3891 5.56789C10.1833 5.56163 10.0052 5.6364 9.8548 5.79219L7.21312 8.54707ZM5.11475 15.6199L4.0281 13.7051L1.96721 13.2362C1.77986 13.1972 1.62998 13.0963 1.51756 12.9338C1.40515 12.7712 1.36144 12.592 1.38642 12.3961L1.59251 10.1883L0.187354 8.50799C0.0624512 8.36471 0 8.19538 0 8C0 7.80462 0.0624512 7.63529 0.187354 7.49201L1.59251 5.81172L1.38642 3.60391C1.36144 3.40853 1.40515 3.2293 1.51756 3.06622C1.62998 2.90314 1.77986 2.80232 1.96721 2.76377L4.0281 2.29485L5.11475 0.380109C5.21468 0.210778 5.35207 0.0966755 5.52693 0.0378005C5.7018 -0.0210746 5.87666 -0.0111753 6.05152 0.0674985L8 0.927179L9.94848 0.0674985C10.1233 -0.0106542 10.2982 -0.0205536 10.4731 0.0378005C10.6479 0.0961545 10.7853 0.210257 10.8852 0.380109L11.9719 2.29485L14.0328 2.76377C14.2201 2.80284 14.37 2.90392 14.4824 3.067C14.5948 3.23008 14.6386 3.40905 14.6136 3.60391L14.4075 5.81172L15.8126 7.49201C15.9375 7.63529 16 7.80462 16 8C16 8.19538 15.9375 8.36471 15.8126 8.50799L14.4075 10.1883L14.6136 12.3961C14.6386 12.5915 14.5948 12.7707 14.4824 12.9338C14.37 13.0969 14.2201 13.1977 14.0328 13.2362L11.9719 13.7051L10.8852 15.6199C10.7853 15.7892 10.6479 15.9033 10.4731 15.9622C10.2982 16.0211 10.1233 16.0112 9.94848 15.9325L8 15.0728L6.05152 15.9325C5.87666 16.0107 5.7018 16.0206 5.52693 15.9622C5.35207 15.9038 5.21468 15.7897 5.11475 15.6199Z" fill="#0014BC"/>
</svg>
